<svg version="1.2" xmlns="http://www.w3.org/2000/svg" viewBox="0 0 292 210" width="292" height="210">
	<title>amex-svg</title>
	<style>
		.s0 { fill: #26a6d1 } 
		.s1 { fill: #ffffff } 
	</style>
	<g id="Layer">
		<path id="Layer" class="s0" d="m18.2 0h255.3c10.1 0 18.3 8.2 18.3 18.3v173.2c0 10.1-8.2 18.2-18.3 18.2h-255.3c-10 0-18.2-8.1-18.2-18.2v-173.2c0-10.1 8.2-18.3 18.2-18.3z"/>
		<path id="Layer" fill-rule="evenodd" class="s1" d="m76.5 73l3.8 7.5v-7.5h34.4l7.6 16.4 7.4-16.4h85.9l8.7 9.7 9.3-9.7h39.9l-28.9 32 28.9 31.8-40.5-0.1-9-9.9-9.6 9.9h-79v-7.9l-3.4 7.9h-19.6l-3.4-7.7v7.7h-37.9l-4.3-10.1h-9.8l-4.3 10.1h-34.5l28.8-63.7c0 0 29.5 0 29.5 0zm-43 54.8h12.3l4.3-10.3h23.5l4.4 10.3h22.9v-35.9l16.4 35.9h10l16.2-35.9 0.1 35.9h11.2v-45.8h-18.4l-13.6 31-14.7-31h-18.5v43.3l-19.1-43.3h-16.8c0 0-20.2 45.8-20.2 45.8zm131.5-0.1h44.6l14.4-15.1 13.9 15.1h14.4l-21-22.7 21-23h-13.8l-14.3 15-13.9-15h-45.3zm-95.4-19.7h-15.4l7.7-18.3zm106.5-16.5h28.3l12.4 13.3-12.9 13.5h-27.8v-9.1h24.8v-9.4h-24.8z"/>
	</g>
</svg>